<svg width="352" height="151" xmlns="http://www.w3.org/2000/svg">
  <g fill="#000" fill-rule="evenodd">
    <path d="M62.463 1.315L5.043 34.0875A10 10 0 0 0 0 42.7725v65.3467a10 10 0 0 0 5.043 8.685l57.42 32.7724a10 10 0 0 0 9.914 0l57.42-32.7725a10 10 0 0 0 5.043-8.685V42.7725a10 10 0 0 0-5.043-8.685L72.377 1.315a10 10 0 0 0-9.914 0V1.315z"/>
    <path stroke="#FFFCFC" stroke-width="3" fill="none" d="M60.86 121.88l-.08-.01-.09-.01-.08-.03-.08-.02-.08-.03-.08-.03-.07-.04-.07-.04-.07-.05-.07-.05-.06-.05-.07-.06-.06-.06-.06-.06-.06-.07-.05-.07-.06-.07-.05-.08-.05-.08-.05-.08-.05-.09-.05-.08-.05-.09-.05-.1-.04-.09-.04-.1-.05-.1-.04-.1-.04-.11-.04-.1-.04-.11-.04-.11-.04-.11-.04-.11-.04-.12-.04-.11-.04-.12-.04-.12-1.98-7.45-.63-.19-1.38-.49-1.35-.55-1.33-.59-1.29-.64-.11-.06-6.7 3.88-.11.06-.11.05-.11.06-.11.05-.11.05-.1.05-.11.05-.1.05-.11.05-.1.04-.1.04-.1.04-.1.04-.1.03-.1.04-.1.03-.1.03-.09.02-.09.02-.1.02-.09.02-.09.01-.09.01-.09.01h-.26l-.08-.01-.08-.02-.08-.01-.08-.02-.08-.03-.08-.03-.08-.03-.07-.04-.07-.05-.08-.05-.07-.05-.07-.06-.06-.06-9.75-9.75-.07-.07-.06-.07-.05-.07-.05-.07-.05-.08-.04-.07-.03-.08-.04-.08-.02-.08-.03-.09-.02-.08-.01-.08-.01-.09-.01-.09v-.27l.01-.09.01-.09.01-.1.02-.09.02-.1.03-.09.02-.1.03-.1.03-.1.04-.1.04-.1.04-.1.04-.1.05-.1.05-.1.05-.1.05-.11.05-.1.06-.1.06-.1.06-.11.06-.1.07-.1 3.87-6.69-.08-.15-.64-1.3-.6-1.32-.54-1.35-.49-1.38-.19-.63-7.45-1.98-.12-.03-.12-.03-.11-.03-.12-.03-.11-.04-.11-.03-.11-.04-.11-.03-.11-.04-.1-.04-.1-.04-.1-.04-.1-.05-.1-.04-.09-.05-.09-.05-.09-.05-.08-.05-.08-.05-.08-.05-.08-.06-.07-.06-.07-.06-.07-.06-.06-.06-.06-.07-.06-.07-.05-.06-.05-.08-.05-.07-.04-.07-.04-.08-.03-.08-.03-.08-.03-.08-.02-.09-.01-.09-.02-.09V68.87l.02-.09.01-.08.02-.09.03-.08.03-.08.03-.07.04-.07.04-.08.05-.07.05-.06.05-.07.06-.06.06-.06.06-.06.07-.06.07-.06.07-.05.08-.06.08-.05.08-.05.08-.05.09-.05.09-.04.09-.05.1-.04.1-.05.1-.04.1-.04.1-.05.11-.04.11-.04.11-.04.11-.04.11-.04.12-.04.11-.03.12-.04.12-.04 7.45-1.99.19-.62.49-1.38.54-1.35.6-1.33.64-1.3.07-.13-3.86-6.67-.07-.11-.06-.1-.06-.1-.06-.11-.06-.1-.05-.1-.05-.11-.05-.1-.05-.1-.05-.1-.04-.1-.04-.1-.04-.1-.04-.1-.03-.1-.03-.1-.02-.1-.03-.09-.02-.1-.02-.09-.01-.1-.01-.09-.01-.09v-.27l.01-.09.01-.08.01-.09.02-.08.03-.09.02-.08.04-.08.03-.07.04-.08.05-.08.05-.07.05-.07.06-.07.07-.07 9.75-9.74.06-.07.07-.06.07-.05.08-.05.07-.05.07-.03.08-.04.08-.03.08-.02.08-.03.08-.01.08-.02h.08l.09-.01h.17l.09.01.09.01.09.01.09.02.1.02.09.02.09.03.1.02.1.03.1.04.1.03.1.04.1.04.1.04.1.05.11.04.1.05.11.05.1.05.11.05.11.06.11.05.11.06.11.05 6.67 3.87.14-.08 1.29-.64 1.33-.59 1.35-.54 1.38-.49.63-.19 1.98-7.46.04-.12.04-.11.04-.12.04-.11.04-.12.04-.11.04-.11.04-.1.04-.11.04-.1.04-.11.05-.1.04-.09.04-.1.05-.09.05-.09.05-.09.05-.09.05-.08.05-.08.05-.07.06-.08.05-.07.06-.06.06-.07.06-.06.07-.05.06-.06.07-.05.07-.04.07-.04.07-.04.08-.04.08-.03.08-.02.08-.02.09-.02.08-.01.1-.01h13.97l.09.01.09.01.09.02.08.02.08.02.08.03.08.04.08.04.08.04.07.04.07.05.07.06.06.05.07.06.06.07.07.06.05.07.06.08.06.07.05.08.06.08.05.09.05.09.05.09.04.09.05.1.04.09.04.1.04.11.04.1.04.11.04.1.03.11.04.11.03.12.03.11.03.12.03.11.03.12 1.99 7.46.62.19 1.38.49 1.35.54 1.33.59 1.3.64.15.09 6.65-3.85.11-.06.1-.07.1-.06.11-.06.1-.05.1-.06.1-.05.11-.05.1-.05.1-.04.1-.05.1-.04.1-.04.1-.03.1-.03.1-.03.09-.03.1-.02.1-.03.09-.01.09-.02.1-.01.09-.01h.27l.09.01.08.01.09.02.08.02.08.02.08.03.08.03.08.04.08.04.07.04.08.05.07.06.07.06.07.06 9.74 9.75.07.07.06.07.05.07.05.07.04.07.04.08.04.07.03.08.02.08.02.08.02.08.01.08.01.09.01.08v.18l-.01.08-.01.09-.01.09-.02.1-.02.09-.02.09-.03.1-.02.09-.04.1-.03.1-.03.1-.04.1-.04.1-.04.1-.05.11-.04.1-.05.11-.05.1-.05.11-.05.11-.06.1-.05.11-.06.11-.05.11-3.86 6.66.07.12.64 1.3.59 1.33.54 1.35.49 1.38.19.62 7.46 1.99.11.04.12.04.12.03.11.04.11.04.12.04.1.04.11.04.11.04.1.05.1.04.1.04.1.05.1.04.09.05.09.04.09.05.08.05.09.05.08.05.07.06.08.05.07.06.06.06.07.06.06.06.05.06.06.07.05.06.04.07.04.08.04.07.03.07.03.08.03.08.02.09.02.08.01.09v.09l.01.1v13.78l-.01.09v.09l-.01.09-.02.09-.02.09-.03.08-.03.08-.03.08-.04.08-.04.07-.04.07-.05.08-.06.06-.05.07-.06.07-.07.06-.06.06-.07.06-.08.06-.07.06-.08.05-.09.05-.08.05-.09.05-.09.05-.09.05-.1.04-.1.05-.1.04-.1.04-.1.04-.11.04-.11.03-.1.04-.12.03-.11.04-.11.03-.12.03-.12.03-.11.03-7.46 1.98-.19.63-.49 1.38-.54 1.35-.59 1.32-.64 1.3-.08.13 3.87 6.68.05.11.06.11.05.11.06.11.05.1.05.11.05.11.05.1.04.11.05.1.04.1.04.1.04.1.03.1.03.1.04.1.02.09.03.1.02.09.02.1.02.09.01.09.01.09.01.09v.17l-.01.08-.01.09-.01.08-.02.08-.02.08-.02.08-.03.08-.04.07-.04.08-.04.07-.05.07-.05.08-.06.06-.07.07-9.74 9.75-.07.06-.07.06-.07.06-.08.05-.07.04-.08.05-.08.03-.08.03-.08.03-.08.03-.08.01-.09.02-.08.01-.09.01h-.27l-.09-.01-.1-.01-.09-.01-.09-.02-.1-.02-.1-.03-.09-.02-.1-.03-.1-.04-.1-.03-.1-.04-.1-.04-.1-.04-.1-.05-.1-.05-.11-.05-.1-.05-.1-.06-.1-.05-.11-.06-.1-.06-.1-.06-.11-.07-6.67-3.86-.13.07-1.3.64-1.33.59-1.35.55-1.38.49-.62.19-1.99 7.45-.03.12-.03.12-.03.11-.03.12-.03.11-.04.11-.03.11-.04.11-.04.1-.04.11-.04.1-.04.1-.04.1-.05.09-.04.1-.05.09-.05.08-.05.09-.06.08-.05.08-.06.08-.06.07-.05.07-.07.07-.06.06-.07.06-.06.06-.07.05-.07.05-.07.05-.08.04-.08.04-.08.03-.08.03-.08.02-.08.03-.09.01-.09.01-.09.01H60.96z"/>
    <path d="M174.1196 57.7813c4.6758 0 8.198 1.4714 10.5667 4.4143 2.3686 2.9428 3.553 7.2443 3.553 12.9045 0 5.5576-1.2459 9.8437-3.7376 12.8584-2.4917 3.0147-5.9934 4.522-10.5051 4.522-2.379 0-4.522-.4922-6.4292-1.4766-1.9073-.9844-3.4146-2.3789-4.522-4.1836h-.2768l-.8614 5.045H160V44h3.0454v12.0278c0 1.8047-.041 3.4658-.123 4.9834l-.0923 2.6148h.2153c1.2715-2.0098 2.8044-3.4863 4.5989-4.4297 1.7944-.9434 3.9529-1.415 6.4753-1.415zm-.0615 2.7685c-3.9375 0-6.7573 1.128-8.4595 3.3838-1.7021 2.2559-2.5532 5.978-2.5532 11.1665v.523c0 5.0449.887 8.6645 2.6609 10.8588 1.774 2.1944 4.5373 3.2915 8.2903 3.2915 3.6504 0 6.3984-1.2766 8.2441-3.8298 1.8457-2.5532 2.7686-6.1882 2.7686-10.905 0-9.6593-3.6504-14.4888-10.9512-14.4888zm43.7432 31.3154l-.769-5.291h-.2462c-1.6816 2.1533-3.4094 3.676-5.1833 4.5681-1.774.8921-3.8709 1.3382-6.2908 1.3382-3.2813 0-5.8345-.8408-7.6597-2.5225-1.8252-1.6816-2.7377-4.0093-2.7377-6.9829 0-3.2608 1.3586-5.7935 4.0759-7.5981 2.7173-1.8047 6.6496-2.7583 11.7971-2.8609l6.3677-.1846v-2.2148c0-3.1787-.646-5.5781-1.938-7.1982-1.292-1.6202-3.3735-2.4302-6.2446-2.4302-3.0967 0-6.3062.8613-9.6285 2.584l-1.1381-2.6455c3.6709-1.7227 7.3007-2.584 10.8896-2.584 3.671 0 6.4138.9536 8.2288 2.8608 1.815 1.9072 2.7224 4.8809 2.7224 8.921v22.2406h-2.2456zm-12.3047-2.1533c3.5684 0 6.383-1.0202 8.444-3.0608 2.0611-2.0405 3.0916-4.8757 3.0916-8.5056V74.854l-5.8447.2461c-4.6963.2256-8.0442.9587-10.0437 2.1995-1.9995 1.2407-2.9993 3.1735-2.9993 5.7985 0 2.0919.6409 3.717 1.9226 4.8758 1.2818 1.1587 3.0916 1.738 5.4295 1.738zm38.5444-31.9306c1.415 0 2.9326.1435 4.5528.4306l-.5845 2.9224c-1.3946-.3487-2.8403-.523-4.3374-.523-2.8506 0-5.1885 1.21-7.0137 3.63-1.8252 2.4198-2.7378 5.4755-2.7378 9.1669v18.457h-3.0454v-33.438h2.584l.3076 6.0293h.2153c1.374-2.461 2.8404-4.1887 4.399-5.1833 1.5586-.9946 3.4453-1.492 5.6601-1.492v.0001zm24.5171 0c1.415 0 2.9326.1435 4.5527.4306l-.5844 2.9224c-1.3946-.3487-2.8404-.523-4.3374-.523-2.8506 0-5.1885 1.21-7.0137 3.63-1.8252 2.4198-2.7378 5.4755-2.7378 9.1669v18.457h-3.0454v-33.438h2.584l.3076 6.0293h.2153c1.374-2.461 2.8403-4.1887 4.399-5.1833 1.5586-.9946 3.4453-1.492 5.6601-1.492v.0001zm5.7524.6459l3.1377.0001 7.0752 18.7646c2.1534 5.7627 3.5171 9.649 4.0913 11.6587h.1846c.8613-2.6455 2.2661-6.5932 4.2144-11.8433l7.0752-18.58 3.1377-.0001-14.981 38.8521c-1.21 3.1582-2.225 5.291-3.0454 6.3984-.8203 1.1075-1.779 1.938-2.8762 2.4917-1.0972.5537-2.425.8306-3.9837.8306-1.169 0-2.4712-.2153-3.9067-.646v-2.6455c1.1895.3281 2.4712.4922 3.8452.4922 1.046 0 1.9688-.2461 2.7686-.7383.7998-.4922 1.5227-1.2561 2.1687-2.2917.646-1.0357 1.3945-2.6763 2.2456-4.922.851-2.2455 1.3996-3.7067 1.6457-4.3835l-12.7969-33.438zm54.479-9.3515c-5.6396 0-10.0795 1.8047-13.3198 5.414-3.2402 3.6094-4.8603 8.5518-4.8603 14.8272 0 6.419 1.5278 11.4023 4.5835 14.9502 3.0557 3.5479 7.4238 5.3218 13.1045 5.3218 3.7734 0 7.2392-.482 10.3974-1.4458v2.7685c-2.9736 1.046-6.6855 1.5689-11.1357 1.5689-6.3165 0-11.2896-2.0405-14.9195-6.1216-3.6299-4.081-5.4448-9.7822-5.4448-17.1035 0-4.5733.8665-8.603 2.5994-12.0894 1.733-3.4863 4.2246-6.178 7.475-8.075 3.2506-1.897 7.0291-2.8454 11.3358-2.8454 4.3887 0 8.3159.8203 11.7817 2.461l-1.2612 2.83c-3.2813-1.6406-6.7266-2.461-10.336-2.461v.0001zm19.9336 42.7895V46.8916h3.1377v44.9736h-3.1377z"/>
    <path d="M174.1196 57.7813c4.6758 0 8.198 1.4714 10.5667 4.4143 2.3686 2.9428 3.553 7.2443 3.553 12.9045 0 5.5576-1.2459 9.8437-3.7376 12.8584-2.4917 3.0147-5.9934 4.522-10.5051 4.522-2.379 0-4.522-.4922-6.4292-1.4766-1.9073-.9844-3.4146-2.3789-4.522-4.1836h-.2768l-.8614 5.045H160V44h3.0454v12.0278c0 1.8047-.041 3.4658-.123 4.9834l-.0923 2.6148h.2153c1.2715-2.0098 2.8044-3.4863 4.5989-4.4297 1.7944-.9434 3.9529-1.415 6.4753-1.415zm-.0615 2.7685c-3.9375 0-6.7573 1.128-8.4595 3.3838-1.7021 2.2559-2.5532 5.978-2.5532 11.1665v.523c0 5.0449.887 8.6645 2.6609 10.8588 1.774 2.1944 4.5373 3.2915 8.2903 3.2915 3.6504 0 6.3984-1.2766 8.2441-3.8298 1.8457-2.5532 2.7686-6.1882 2.7686-10.905 0-9.6593-3.6504-14.4888-10.9512-14.4888zm43.7432 31.3154l-.769-5.291h-.2462c-1.6816 2.1533-3.4094 3.676-5.1833 4.5681-1.774.8921-3.8709 1.3382-6.2908 1.3382-3.2813 0-5.8345-.8408-7.6597-2.5225-1.8252-1.6816-2.7377-4.0093-2.7377-6.9829 0-3.2608 1.3586-5.7935 4.0759-7.5981 2.7173-1.8047 6.6496-2.7583 11.7971-2.8609l6.3677-.1846v-2.2148c0-3.1787-.646-5.5781-1.938-7.1982-1.292-1.6202-3.3735-2.4302-6.2446-2.4302-3.0967 0-6.3062.8613-9.6285 2.584l-1.1381-2.6455c3.6709-1.7227 7.3007-2.584 10.8896-2.584 3.671 0 6.4138.9536 8.2288 2.8608 1.815 1.9072 2.7224 4.8809 2.7224 8.921v22.2406h-2.2456zm-12.3047-2.1533c3.5684 0 6.383-1.0202 8.444-3.0608 2.0611-2.0405 3.0916-4.8757 3.0916-8.5056V74.854l-5.8447.2461c-4.6963.2256-8.0442.9587-10.0437 2.1995-1.9995 1.2407-2.9993 3.1735-2.9993 5.7985 0 2.0919.6409 3.717 1.9226 4.8758 1.2818 1.1587 3.0916 1.738 5.4295 1.738zm38.5444-31.9306c1.415 0 2.9326.1435 4.5528.4306l-.5845 2.9224c-1.3946-.3487-2.8403-.523-4.3374-.523-2.8506 0-5.1885 1.21-7.0137 3.63-1.8252 2.4198-2.7378 5.4755-2.7378 9.1669v18.457h-3.0454v-33.438h2.584l.3076 6.0293h.2153c1.374-2.461 2.8404-4.1887 4.399-5.1833 1.5586-.9946 3.4453-1.492 5.6601-1.492v.0001zm24.5171 0c1.415 0 2.9326.1435 4.5527.4306l-.5844 2.9224c-1.3946-.3487-2.8404-.523-4.3374-.523-2.8506 0-5.1885 1.21-7.0137 3.63-1.8252 2.4198-2.7378 5.4755-2.7378 9.1669v18.457h-3.0454v-33.438h2.584l.3076 6.0293h.2153c1.374-2.461 2.8403-4.1887 4.399-5.1833 1.5586-.9946 3.4453-1.492 5.6601-1.492v.0001zm5.7524.6459l3.1377.0001 7.0752 18.7646c2.1534 5.7627 3.5171 9.649 4.0913 11.6587h.1846c.8613-2.6455 2.2661-6.5932 4.2144-11.8433l7.0752-18.58 3.1377-.0001-14.981 38.8521c-1.21 3.1582-2.225 5.291-3.0454 6.3984-.8203 1.1075-1.779 1.938-2.8762 2.4917-1.0972.5537-2.425.8306-3.9837.8306-1.169 0-2.4712-.2153-3.9067-.646v-2.6455c1.1895.3281 2.4712.4922 3.8452.4922 1.046 0 1.9688-.2461 2.7686-.7383.7998-.4922 1.5227-1.2561 2.1687-2.2917.646-1.0357 1.3945-2.6763 2.2456-4.922.851-2.2455 1.3996-3.7067 1.6457-4.3835l-12.7969-33.438zm54.479-9.3515c-5.6396 0-10.0795 1.8047-13.3198 5.414-3.2402 3.6094-4.8603 8.5518-4.8603 14.8272 0 6.419 1.5278 11.4023 4.5835 14.9502 3.0557 3.5479 7.4238 5.3218 13.1045 5.3218 3.7734 0 7.2392-.482 10.3974-1.4458v2.7685c-2.9736 1.046-6.6855 1.5689-11.1357 1.5689-6.3165 0-11.2896-2.0405-14.9195-6.1216-3.6299-4.081-5.4448-9.7822-5.4448-17.1035 0-4.5733.8665-8.603 2.5994-12.0894 1.733-3.4863 4.2246-6.178 7.475-8.075 3.2506-1.897 7.0291-2.8454 11.3358-2.8454 4.3887 0 8.3159.8203 11.7817 2.461l-1.2612 2.83c-3.2813-1.6406-6.7266-2.461-10.336-2.461v.0001zm19.9336 42.7895V46.8916h3.1377v44.9736h-3.1377z"/>
  </g>
</svg>
