<svg width="135" height="151" xmlns="http://www.w3.org/2000/svg">
  <g fill="#000" fill-rule="nonzero">
    <path d="M62.463 1.315L5.043 34.0875A10 10 0 0 0 0 42.7725v65.3467a10 10 0 0 0 5.043 8.685l57.42 32.7724a10 10 0 0 0 9.914 0l57.42-32.7725a10 10 0 0 0 5.043-8.685V42.7725a10 10 0 0 0-5.043-8.685L72.377 1.315a10 10 0 0 0-9.914 0V1.315z"/>
    <path stroke="#FFFCFC" stroke-width="3" fill="none" d="M60.86 121.88l-.08-.01-.09-.01-.08-.03-.08-.02-.08-.03-.08-.03-.07-.04-.07-.04-.07-.05-.07-.05-.06-.05-.07-.06-.06-.06-.06-.06-.06-.07-.05-.07-.06-.07-.05-.08-.05-.08-.05-.08-.05-.09-.05-.08-.05-.09-.05-.1-.04-.09-.04-.1-.05-.1-.04-.1-.04-.11-.04-.1-.04-.11-.04-.11-.04-.11-.04-.11-.04-.12-.04-.11-.04-.12-.04-.12-1.98-7.45-.63-.19-1.38-.49-1.35-.55-1.33-.59-1.29-.64-.11-.06-6.7 3.88-.11.06-.11.05-.11.06-.11.05-.11.05-.1.05-.11.05-.1.05-.11.05-.1.04-.1.04-.1.04-.1.04-.1.03-.1.04-.1.03-.1.03-.09.02-.09.02-.1.02-.09.02-.09.01-.09.01-.09.01h-.26l-.08-.01-.08-.02-.08-.01-.08-.02-.08-.03-.08-.03-.08-.03-.07-.04-.07-.05-.08-.05-.07-.05-.07-.06-.06-.06-9.75-9.75-.07-.07-.06-.07-.05-.07-.05-.07-.05-.08-.04-.07-.03-.08-.04-.08-.02-.08-.03-.09-.02-.08-.01-.08-.01-.09-.01-.09v-.27l.01-.09.01-.09.01-.1.02-.09.02-.1.03-.09.02-.1.03-.1.03-.1.04-.1.04-.1.04-.1.04-.1.05-.1.05-.1.05-.1.05-.11.05-.1.06-.1.06-.1.06-.11.06-.1.07-.1 3.87-6.69-.08-.15-.64-1.3-.6-1.32-.54-1.35-.49-1.38-.19-.63-7.45-1.98-.12-.03-.12-.03-.11-.03-.12-.03-.11-.04-.11-.03-.11-.04-.11-.03-.11-.04-.1-.04-.1-.04-.1-.04-.1-.05-.1-.04-.09-.05-.09-.05-.09-.05-.08-.05-.08-.05-.08-.05-.08-.06-.07-.06-.07-.06-.07-.06-.06-.06-.06-.07-.06-.07-.05-.06-.05-.08-.05-.07-.04-.07-.04-.08-.03-.08-.03-.08-.03-.08-.02-.09-.01-.09-.02-.09V68.87l.02-.09.01-.08.02-.09.03-.08.03-.08.03-.07.04-.07.04-.08.05-.07.05-.06.05-.07.06-.06.06-.06.06-.06.07-.06.07-.06.07-.05.08-.06.08-.05.08-.05.08-.05.09-.05.09-.04.09-.05.1-.04.1-.05.1-.04.1-.04.1-.05.11-.04.11-.04.11-.04.11-.04.11-.04.12-.04.11-.03.12-.04.12-.04 7.45-1.99.19-.62.49-1.38.54-1.35.6-1.33.64-1.3.07-.13-3.86-6.67-.07-.11-.06-.1-.06-.1-.06-.11-.06-.1-.05-.1-.05-.11-.05-.1-.05-.1-.05-.1-.04-.1-.04-.1-.04-.1-.04-.1-.03-.1-.03-.1-.02-.1-.03-.09-.02-.1-.02-.09-.01-.1-.01-.09-.01-.09v-.27l.01-.09.01-.08.01-.09.02-.08.03-.09.02-.08.04-.08.03-.07.04-.08.05-.08.05-.07.05-.07.06-.07.07-.07 9.75-9.74.06-.07.07-.06.07-.05.08-.05.07-.05.07-.03.08-.04.08-.03.08-.02.08-.03.08-.01.08-.02h.08l.09-.01h.17l.09.01.09.01.09.01.09.02.1.02.09.02.09.03.1.02.1.03.1.04.1.03.1.04.1.04.1.04.1.05.11.04.1.05.11.05.1.05.11.05.11.06.11.05.11.06.11.05 6.67 3.87.14-.08 1.29-.64 1.33-.59 1.35-.54 1.38-.49.63-.19 1.98-7.46.04-.12.04-.11.04-.12.04-.11.04-.12.04-.11.04-.11.04-.1.04-.11.04-.1.04-.11.05-.1.04-.09.04-.1.05-.09.05-.09.05-.09.05-.09.05-.08.05-.08.05-.07.06-.08.05-.07.06-.06.06-.07.06-.06.07-.05.06-.06.07-.05.07-.04.07-.04.07-.04.08-.04.08-.03.08-.02.08-.02.09-.02.08-.01.1-.01h13.97l.09.01.09.01.09.02.08.02.08.02.08.03.08.04.08.04.08.04.07.04.07.05.07.06.06.05.07.06.06.07.07.06.05.07.06.08.06.07.05.08.06.08.05.09.05.09.05.09.04.09.05.1.04.09.04.1.04.11.04.1.04.11.04.1.03.11.04.11.03.12.03.11.03.12.03.11.03.12 1.99 7.46.62.19 1.38.49 1.35.54 1.33.59 1.3.64.15.09 6.65-3.85.11-.06.1-.07.1-.06.11-.06.1-.05.1-.06.1-.05.11-.05.1-.05.1-.04.1-.05.1-.04.1-.04.1-.03.1-.03.1-.03.09-.03.1-.02.1-.03.09-.01.09-.02.1-.01.09-.01h.27l.09.01.08.01.09.02.08.02.08.02.08.03.08.03.08.04.08.04.07.04.08.05.07.06.07.06.07.06 9.74 9.75.07.07.06.07.05.07.05.07.04.07.04.08.04.07.03.08.02.08.02.08.02.08.01.08.01.09.01.08v.18l-.01.08-.01.09-.01.09-.02.1-.02.09-.02.09-.03.1-.02.09-.04.1-.03.1-.03.1-.04.1-.04.1-.04.1-.05.11-.04.1-.05.11-.05.1-.05.11-.05.11-.06.1-.05.11-.06.11-.05.11-3.86 6.66.07.12.64 1.3.59 1.33.54 1.35.49 1.38.19.62 7.46 1.99.11.04.12.04.12.03.11.04.11.04.12.04.1.04.11.04.11.04.1.05.1.04.1.04.1.05.1.04.09.05.09.04.09.05.08.05.09.05.08.05.07.06.08.05.07.06.06.06.07.06.06.06.05.06.06.07.05.06.04.07.04.08.04.07.03.07.03.08.03.08.02.09.02.08.01.09v.09l.01.1v13.78l-.01.09v.09l-.01.09-.02.09-.02.09-.03.08-.03.08-.03.08-.04.08-.04.07-.04.07-.05.08-.06.06-.05.07-.06.07-.07.06-.06.06-.07.06-.08.06-.07.06-.08.05-.09.05-.08.05-.09.05-.09.05-.09.05-.1.04-.1.05-.1.04-.1.04-.1.04-.11.04-.11.03-.1.04-.12.03-.11.04-.11.03-.12.03-.12.03-.11.03-7.46 1.98-.19.63-.49 1.38-.54 1.35-.59 1.32-.64 1.3-.08.13 3.87 6.68.05.11.06.11.05.11.06.11.05.1.05.11.05.11.05.1.04.11.05.1.04.1.04.1.04.1.03.1.03.1.04.1.02.09.03.1.02.09.02.1.02.09.01.09.01.09.01.09v.17l-.01.08-.01.09-.01.08-.02.08-.02.08-.02.08-.03.08-.04.07-.04.08-.04.07-.05.07-.05.08-.06.06-.07.07-9.74 9.75-.07.06-.07.06-.07.06-.08.05-.07.04-.08.05-.08.03-.08.03-.08.03-.08.03-.08.01-.09.02-.08.01-.09.01h-.27l-.09-.01-.1-.01-.09-.01-.09-.02-.1-.02-.1-.03-.09-.02-.1-.03-.1-.04-.1-.03-.1-.04-.1-.04-.1-.04-.1-.05-.1-.05-.11-.05-.1-.05-.1-.06-.1-.05-.11-.06-.1-.06-.1-.06-.11-.07-6.67-3.86-.13.07-1.3.64-1.33.59-1.35.55-1.38.49-.62.19-1.99 7.45-.03.12-.03.12-.03.11-.03.12-.03.11-.04.11-.03.11-.04.11-.04.1-.04.11-.04.1-.04.1-.04.1-.05.09-.04.1-.05.09-.05.08-.05.09-.06.08-.05.08-.06.08-.06.07-.05.07-.07.07-.06.06-.07.06-.06.06-.07.05-.07.05-.07.05-.08.04-.08.04-.08.03-.08.03-.08.02-.08.03-.09.01-.09.01-.09.01H60.96z"/>
  </g>
</svg>
